Coordinates
version=1
nRows=14
nColumns=46
inDegrees=yes

Units are S.I. units (second, meters, Newtons, ...)
Angles are in degrees.

endheader
time	pelvis_tilt	pelvis_list	pelvis_rotation	pelvis_tx	pelvis_ty	pelvis_tz	bb_angle	bb_tx	bb_ty	bb_tz	hip_flexion_r	hip_adduction_r	hip_rotation_r	knee_angle_r	knee_angle_r_beta	ankle_angle_r	subtalar_angle_r	mtp_angle_r	crank_angle_r	hip_flexion_l	hip_adduction_l	hip_rotation_l	knee_angle_l	knee_angle_l_beta	ankle_angle_l	subtalar_angle_l	mtp_angle_l	crank_angle_l	lumbar_extension	lumbar_bending	lumbar_rotation	arm_flex_r	arm_add_r	arm_rot_r	elbow_flex_r	pro_sup_r	wrist_flex_r	wrist_dev_r	arm_flex_l	arm_add_l	arm_rot_l	elbow_flex_l	pro_sup_l	wrist_flex_l	wrist_dev_l
      5.00500000	    -11.05861080	     -5.03649209	     -7.79097892	      0.10047551	      1.17314127	     -0.25887007	      0.00000000	      0.50000000	      0.00000000	      0.25000000	     89.95493974	     -1.87560012	     -0.21891520	    103.49928508	      1.80640330	      7.43705194	      2.26957524	      0.00000000	      0.00000000	     44.89835262	    -19.97790033	    -14.77340852	     52.40670146	      0.91466949	    -17.32405561	      8.72848880	      0.00000000	      0.00000000	    -62.96245519	      4.92261666	      5.53521255	     89.78638156	      0.84423838	     25.18414791	     43.95114250	     22.49833360	      0.00000000	      0.00000000	     89.72149469	    -10.78039216	     29.22841072	     33.96825943	     21.12544703	      0.00000000	      0.00000000
      5.01000000	    -11.17226865	     -4.87265090	     -7.82990861	      0.09960438	      1.17390116	     -0.25844733	      0.00000000	      0.50000000	      0.00000000	      0.25000000	     89.12904829	     -1.78190588	     -0.29058405	    101.62338092	      1.77366259	      8.78747106	      2.62089924	      0.00000000	      0.00000000	     45.84322000	    -20.07571837	    -14.42318861	     54.14036223	      0.94492758	    -19.19509546	      7.50930411	      0.00000000	      0.00000000	    -62.98089431	      4.94215597	      5.36840119	     89.78853453	      1.26766680	     24.85391410	     44.10489699	     22.50663498	      0.00000000	      0.00000000	     89.71825541	    -11.03893180	     28.93968791	     34.11210024	     21.29052667	      0.00000000	      0.00000000
      5.01500000	    -11.16773606	     -4.64202178	     -7.86818617	      0.09889375	      1.17472612	     -0.25763182	      0.00000000	      0.50000000	      0.00000000	      0.25000000	     88.06926687	     -1.67327853	     -0.32170389	     99.62392609	      1.73876552	     10.18252512	      2.70266251	      0.00000000	      0.00000000	     46.64145140	    -20.20259229	    -14.24002320	     55.89919276	      0.97562496	    -20.55956837	      6.39647614	      0.00000000	      0.00000000	    -63.05565149	      4.81060092	      5.18755718	     89.78890741	      1.47229638	     24.72887842	     44.20820163	     22.41558928	      0.00000000	      0.00000000	     89.72676508	    -11.20561194	     28.85425336	     34.19477891	     21.26346208	      0.00000000	      0.00000000
      5.02000000	    -11.06448546	     -4.16038737	     -7.82494163	      0.09819107	      1.17526038	     -0.25675047	      0.00000000	      0.50000000	      0.00000000	      0.25000000	     86.95936028	     -1.78865402	     -0.20336042	     97.60885846	      1.70359596	     11.21288724	      2.59448109	      0.00000000	      0.00000000	     47.36232753	    -20.04315280	    -14.04492680	     57.72843037	      1.00755118	    -21.50747940	      5.93456713	      0.00000000	      0.00000000	    -63.09929597	      4.32851628	      4.58523999	     89.78621215	      1.44871930	     24.62113910	     44.27631987	     22.38784996	      0.00000000	      0.00000000	     89.73583753	    -11.15751263	     28.84068962	     34.27891080	     21.26587978	      0.00000000	      0.00000000
      5.02500000	    -11.13059628	     -4.08642207	     -7.70472271	      0.09738749	      1.17549160	     -0.25605279	      0.00000000	      0.50000000	      0.00000000	      0.25000000	     85.71050551	     -1.83119475	     -0.47012976	     95.33180751	      1.66385392	     12.61850226	      2.92111204	      0.00000000	      0.00000000	     48.51820713	    -20.19660160	    -13.57118883	     59.73385394	      1.04255243	    -22.93629236	      4.23278432	      0.00000000	      0.00000000	    -63.10668881	      4.40894636	      4.47524066	     89.78738924	      1.75439980	     24.43486418	     44.33724440	     22.25006215	      0.00000000	      0.00000000	     89.73075156	    -11.42257046	     28.63183878	     34.61562721	     21.25075631	      0.00000000	      0.00000000
      5.03000000	    -11.03799990	     -3.78281072	     -7.52427349	      0.09682956	      1.17565342	     -0.25518052	      0.00000000	      0.50000000	      0.00000000	      0.25000000	     84.33788345	     -2.02638251	     -0.60854230	     93.05743128	      1.62415857	     13.71729217	      2.82823832	      0.00000000	      0.00000000	     49.44150548	    -20.12209798	    -13.20780932	     61.72707389	      1.07734068	    -23.87574738	      3.21679003	      0.00000000	      0.00000000	    -63.17055128	      4.21947695	      4.05517430	     89.78642709	      1.88872965	     24.23505241	     44.35153346	     22.12370820	      0.00000000	      0.00000000	     89.73317829	    -11.51878363	     28.49740766	     34.86681548	     21.23057174	      0.00000000	      0.00000000
      5.03500000	    -10.97808605	     -3.49967646	     -7.30570541	      0.09619651	      1.17560662	     -0.25414585	      0.00000000	      0.50000000	      0.00000000	      0.25000000	     82.97217291	     -2.18737748	     -0.75133019	     90.74579992	      1.58381299	     14.52285856	      2.63176222	      0.00000000	      0.00000000	     50.46834346	    -20.05823806	    -12.76131912	     63.77644236	      1.11310890	    -24.72698298	      2.35190606	      0.00000000	      0.00000000	    -63.18423512	      4.06096616	      3.65513816	     89.78469410	      2.05747027	     23.99907150	     44.35223335	     21.95519029	      0.00000000	      0.00000000	     89.73607894	    -11.63194861	     28.32869925	     35.18869764	     21.19813997	      0.00000000	      0.00000000
      5.04000000	    -10.91347944	     -3.14903573	     -7.18160943	      0.09571117	      1.17537513	     -0.25288208	      0.00000000	      0.50000000	      0.00000000	      0.25000000	     81.53965053	     -2.28497327	     -0.87821705	     88.33284772	      1.54169903	     15.32089254	      2.29001446	      0.00000000	      0.00000000	     51.43783094	    -20.05064755	    -12.49570698	     65.83542212	      1.14904488	    -25.31500636	      1.73206918	      0.00000000	      0.00000000	    -63.16565955	      3.72076277	      3.24218304	     89.78134300	      2.07471308	     23.87393291	     44.28241196	     21.86326011	      0.00000000	      0.00000000	     89.73938327	    -11.65405887	     28.26669335	     35.37465134	     21.18755958	      0.00000000	      0.00000000
      5.04500000	    -10.89663675	     -2.93563719	     -7.02071048	      0.09521889	      1.17481217	     -0.25147015	      0.00000000	      0.50000000	      0.00000000	      0.25000000	     80.10854053	     -2.30484597	     -1.10108374	     85.86534960	      1.49863306	     15.75507786	      1.78862604	      0.00000000	      0.00000000	     52.59826976	    -20.15247423	    -11.99942207	     68.03065722	      1.18735896	    -25.75899759	      1.17690745	      0.00000000	      0.00000000	    -63.10301057	      3.49480305	      2.94506472	     89.77869763	      2.11512413	     23.74724309	     44.13528171	     21.75303291	      0.00000000	      0.00000000	     89.74057789	    -11.69057852	     28.20244317	     35.62778213	     21.18354071	      0.00000000	      0.00000000
      5.05000000	    -10.88019326	     -2.68236182	     -6.83432504	      0.09477148	      1.17409375	     -0.24998308	      0.00000000	      0.50000000	      0.00000000	      0.25000000	     78.68569066	     -2.33259757	     -1.26291284	     83.38549839	      1.45535150	     15.96677201	      1.28968726	      0.00000000	      0.00000000	     53.74938134	    -20.21584784	    -11.58463044	     70.19820948	      1.22518988	    -26.04557881	      0.58736899	      0.00000000	      0.00000000	    -63.01288265	      3.25692255	      2.63445040	     89.77638410	      2.14361768	     23.62271003	     43.98542077	     21.64523073	      0.00000000	      0.00000000	     89.74265365	    -11.69261541	     28.16568253	     35.86679740	     21.17694026	      0.00000000	      0.00000000
      5.05500000	    -10.83297713	     -2.47204230	     -6.65955738	      0.09429239	      1.17317066	     -0.24823110	      0.00000000	      0.50000000	      0.00000000	      0.25000000	     77.22958231	     -2.29682497	     -1.44263664	     80.91455836	      1.41222546	     15.95609533	      0.71942377	      0.00000000	      0.00000000	     54.93134938	    -20.39933064	    -11.15050434	     72.43377703	      1.26420790	    -26.18875338	      0.28935329	      0.00000000	      0.00000000	    -62.92205822	      2.99444774	      2.35083106	     89.77481470	      2.13853778	     23.47764935	     43.82216181	     21.53593110	      0.00000000	      0.00000000	     89.74512866	    -11.69367041	     28.14472202	     36.10994155	     21.16889240	      0.00000000	      0.00000000
      5.06000000	    -10.72954436	     -1.83176324	     -6.42043489	      0.09398158	      1.17238250	     -0.24654767	      0.00000000	      0.50000000	      0.00000000	      0.25000000	     75.86571085	     -2.54452547	     -1.17682113	     78.61316096	      1.37205849	     15.82196445	      0.63272207	      0.00000000	      0.00000000	     55.87122564	    -20.17356129	    -11.06277020	     74.46194480	      1.29960610	    -26.29498481	      0.24042385	      0.00000000	      0.00000000	    -62.81280180	      2.43822841	      1.60671426	     89.76629280	      1.99969232	     23.37942596	     43.79110030	     21.50789911	      0.00000000	      0.00000000	     89.75143515	    -11.49738471	     28.20899809	     36.20354787	     21.17493126	      0.00000000	      0.00000000
      5.06500000	    -10.69679376	     -1.99292985	     -6.18545923	      0.09380791	      1.17108986	     -0.24490268	      0.00000000	      0.50000000	      0.00000000	      0.25000000	     74.35551282	     -2.49408563	     -1.78978406	     76.20574618	      1.33004118	     15.42734811	     -0.17541205	      0.00000000	      0.00000000	     57.28171582	    -20.65067803	    -10.31726503	     76.86719097	      1.34158557	    -26.10361108	     -0.05511364	      0.00000000	      0.00000000	    -62.74634299	      2.53139252	      1.71971761	     89.76934162	      2.03653033	     23.27839365	     43.44583513	     21.36306629	      0.00000000	      0.00000000	     89.74805489	    -11.55026869	     28.18360920	     36.54070706	     21.17237139	      0.00000000	      0.00000000
      5.07000000	    -10.66149605	     -1.72358088	     -5.92407773	      0.09365934	      1.16966747	     -0.24316240	      0.00000000	      0.50000000	      0.00000000	      0.25000000	     73.10651536	     -2.66716506	     -1.86428609	     74.10012023	      1.29329107	     14.84057011	     -0.33472415	      0.00000000	      0.00000000	     58.54438769	    -20.75698602	     -9.89610661	     79.12446280	      1.38098239	    -25.80526838	     -0.11719759	      0.00000000	      0.00000000	    -62.59196043	      2.27473681	      1.39776961	     89.76622807	      1.90604119	     23.18496781	     43.23341552	     21.24533569	      0.00000000	      0.00000000	     89.75093683	    -11.41859063	     28.23112767	     36.71224916	     21.13731790	      0.00000000	      0.00000000
